<?xml version="1.0" encoding="UTF-8"?>
<svg width="12px" height="12px" viewBox="0 0 12 12" version="1.1" xmlns="http://www.w3.org/2000/svg" xmlns:xlink="http://www.w3.org/1999/xlink">
    <!-- Generator: sketchtool 52.5 (67469) - http://www.bohemiancoding.com/sketch -->
    <title>C3911E0C-CA6B-4019-AE2F-7DF1FD4E8FEC</title>
    <desc>Created with sketchtool.</desc>
    <g id="Page-1" stroke="none" stroke-width="1" fill="none" fill-rule="evenodd">
        <g id="Sales-Dashboard-Copy-7" transform="translate(-1046.000000, -898.000000)" fill="#FFA502">
            <g id="Revenue-Row-Copy-5" transform="translate(1018.000000, 671.000000)">
                <g id="Card-01">
                    <g id="Group-4" transform="translate(18.000000, 217.000000)">
                        <path d="M14.9744297,9.20430008 C15.2647112,8.93189997 15.735274,8.93189997 16.0255554,9.20430008 L20.7823186,13.6679345 C20.9273404,13.8041345 21,13.9826286 21,14.1611226 C21,14.3396167 20.9273404,14.5181665 20.7823186,14.6543108 C20.4920372,14.9267109 20.0214744,14.9267109 19.7311929,14.6543108 L16.2432368,11.3813248 L16.2432368,23.3025397 C16.2432368,23.6877052 15.9103823,24 15.4999926,24 C15.0895434,24 14.7567483,23.6877052 14.7567483,23.3025397 L14.7567483,11.3813248 L11.2687923,14.6544224 C10.9785108,14.9268225 10.507948,14.9268225 10.2176665,14.6544224 C9.9274445,14.3820781 9.9274445,13.9403904 10.2176665,13.6680461 L14.9744297,9.20430008 Z" id="Path" transform="translate(15.500000, 16.500000) rotate(45.000000) translate(-15.500000, -16.500000) "></path>
                    </g>
                </g>
            </g>
        </g>
    </g>
</svg>