<?xml version="1.0" encoding="UTF-8"?>
<svg width="11px" height="10px" viewBox="0 0 11 10" version="1.1" xmlns="http://www.w3.org/2000/svg" xmlns:xlink="http://www.w3.org/1999/xlink">
    <!-- Generator: sketchtool 52.5 (67469) - http://www.bohemiancoding.com/sketch -->
    <title>BB717425-7609-440A-BD8A-4360B9779803</title>
    <desc>Created with sketchtool.</desc>
    <g id="Page-1" stroke="none" stroke-width="1" fill="none" fill-rule="evenodd">
        <g id="Sales-Dashboard-Copy-7" transform="translate(-194.000000, -270.000000)" fill="#3AC299">
            <g id="Revenue-Row" transform="translate(165.000000, 173.000000)">
                <g id="Card-01">
                    <g id="Group-2" transform="translate(20.000000, 87.000000)">
                        <path d="M13.6539368,8.80878805 C13.917829,8.57270796 14.3456134,8.57270796 14.6095057,8.80878805 L18.9338358,12.6772712 C19.0656738,12.7953113 19.131728,12.9500061 19.131728,13.1047009 C19.131728,13.2593958 19.0656738,13.414139 18.9338358,13.5321307 C18.6699436,13.7682107 18.2421592,13.7682107 17.978267,13.5321307 L14.8073978,10.6955428 L14.8073978,21.0272624 C14.8073978,21.3610725 14.5048028,21.631728 14.1317212,21.631728 C13.7585856,21.631728 13.4560446,21.3610725 13.4560446,21.0272624 L13.4560446,10.6955428 L10.2851755,13.5322274 C10.0212832,13.7683075 9.59349888,13.7683075 9.32960663,13.5322274 C9.06576844,13.2961956 9.06576844,12.9133997 9.32960663,12.6773679 L13.6539368,8.80878805 Z" id="Path" transform="translate(14.131728, 15.131728) rotate(45.000000) translate(-14.131728, -15.131728) "></path>
                    </g>
                </g>
            </g>
        </g>
    </g>
</svg>