<svg xmlns="http://www.w3.org/2000/svg" width="11" height="11" viewBox="0 0 11 11">
  <path fill="#E01A58" fill-rule="evenodd" d="M13.6539368,11.808788 C13.917829,11.572708 14.3456134,11.572708 14.6095057,11.808788 L18.9338358,15.6772712 C19.0656738,15.7953113 19.131728,15.9500061 19.131728,16.1047009 C19.131728,16.2593958 19.0656738,16.414139 18.9338358,16.5321307 C18.6699436,16.7682107 18.2421592,16.7682107 17.978267,16.5321307 L14.8073978,13.6955428 L14.8073978,24.0272624 C14.8073978,24.3610725 14.5048028,24.631728 14.1317212,24.631728 C13.7585856,24.631728 13.4560446,24.3610725 13.4560446,24.0272624 L13.4560446,13.6955428 L10.2851755,16.5322274 C10.0212832,16.7683075 9.59349888,16.7683075 9.32960663,16.5322274 C9.06576844,16.2961956 9.06576844,15.9133997 9.32960663,15.6773679 L13.6539368,11.808788 Z" transform="rotate(-133 6.805 13.588)"/>
</svg>
