<?xml version="1.0" encoding="UTF-8"?>
<svg width="15px" height="15px" viewBox="0 0 15 15" version="1.1" xmlns="http://www.w3.org/2000/svg" xmlns:xlink="http://www.w3.org/1999/xlink">
    <!-- Generator: sketchtool 52.5 (67469) - http://www.bohemiancoding.com/sketch -->
    <title>9F3BCBF1-1D2E-4197-A188-6870D248C49B</title>
    <desc>Created with sketchtool.</desc>
    <g id="Page-1" stroke="none" stroke-width="1" fill="none" fill-rule="evenodd">
        <g id="Sales-Dashboard-Copy-7" transform="translate(-190.000000, -199.000000)" fill="#E81A59" fill-rule="nonzero">
            <g id="Revenue-Row" transform="translate(165.000000, 173.000000)">
                <g id="Card-01">
                    <g id="noun_Target_2187505" transform="translate(25.000000, 26.000000)">
                        <g id="Group-3">
                            <path d="M14.375,6.875 C14.720178,6.875 15,7.15482203 15,7.5 C15,7.84517797 14.720178,8.125 14.375,8.125 L13.0875,8.125 C12.7945823,10.7347834 10.7347834,12.7945823 8.125,13.0875 L8.125,14.375 C8.125,14.720178 7.84517797,15 7.5,15 C7.15482203,15 6.875,14.720178 6.875,14.375 L6.875,13.0875 C4.26521658,12.7945823 2.20541765,10.7347834 1.9125,8.125 L0.625,8.125 C0.279822031,8.125 -4.22721094e-17,7.84517797 0,7.5 C4.22721094e-17,7.15482203 0.279822031,6.875 0.625,6.875 L1.9125,6.875 C2.20541765,4.26521658 4.26521658,2.20541765 6.875,1.9125 L6.875,0.625 C6.875,0.279822031 7.15482203,-2.11360547e-17 7.5,0 C7.84517797,2.11360547e-17 8.125,0.279822031 8.125,0.625 L8.125,1.9125 C10.7347834,2.20541765 12.7945823,4.26521658 13.0875,6.875 L14.375,6.875 Z M7.5,11.875 C9.91624578,11.875 11.875,9.91624578 11.875,7.5 C11.875,5.08375422 9.91624578,3.125 7.5,3.125 C5.08375422,3.125 3.125,5.08375422 3.125,7.5 C3.125,9.91624578 5.08375422,11.875 7.5,11.875 Z M7.5,5 C8.16304122,5 8.79892601,5.2633921 9.26776695,5.73223305 C9.7366079,6.20107399 10,6.83695878 10,7.5 C10,8.88071187 8.88071187,10 7.5,10 C6.11928813,10 5,8.88071187 5,7.5 C5,6.11928813 6.11928813,5 7.5,5 Z M7.5,8.75 C8.19035594,8.75 8.75,8.19035594 8.75,7.5 C8.75,6.80964406 8.19035594,6.25 7.5,6.25 C6.80964406,6.25 6.25,6.80964406 6.25,7.5 C6.25,8.19035594 6.80964406,8.75 7.5,8.75 Z" id="Combined-Shape"></path>
                        </g>
                    </g>
                </g>
            </g>
        </g>
    </g>
</svg>