<?xml version="1.0" encoding="UTF-8"?>
<svg width="9px" height="16px" viewBox="0 0 9 16" version="1.1" xmlns="http://www.w3.org/2000/svg" xmlns:xlink="http://www.w3.org/1999/xlink">
    <!-- Generator: sketchtool 52.5 (67469) - http://www.bohemiancoding.com/sketch -->
    <title>2C7CC722-842E-45C9-B9B2-B15D1CBB1180</title>
    <desc>Created with sketchtool.</desc>
    <g id="Page-1" stroke="none" stroke-width="1" fill="none" fill-rule="evenodd">
        <g id="Sales-Dashboard-Copy-7" transform="translate(-193.000000, -435.000000)" fill="#E81A59" fill-rule="nonzero">
            <g id="Revenue-Row-Copy" transform="translate(165.000000, 410.000000)">
                <g id="Card-01">
                    <path d="M32.8973241,40.5362717 L32.8973241,38.9117602 C34.0261314,38.7500859 34.9078148,38.3097297 35.5423744,37.5916627 C36.175963,36.8735956 36.493,35.9904557 36.493,34.9432139 C36.493,34.0052115 36.2410211,33.236166 35.7375488,32.6370485 C35.233591,32.0379311 34.2873349,31.5495095 32.8973241,31.1732404 L32.8973241,27.7790506 C33.4590575,28.0222903 33.806196,28.4854654 33.9392253,29.1680904 L36.1366368,28.8811549 C35.9856436,28.0130657 35.6385051,27.3197596 35.0947356,26.801722 C34.549995,26.2831989 33.8173627,25.9690749 32.8968386,25.85935 L32.8968386,25 L31.6384006,25 L31.6384006,25.85935 C30.6426227,25.9579082 29.8444468,26.3298078 29.2453293,26.9760196 C28.6466973,27.6207748 28.3466531,28.4179798 28.3466531,29.3676344 C28.3466531,30.3056368 28.6122262,31.1028417 29.141916,31.7607057 C29.6711202,32.4175987 30.5032818,32.9084478 31.6388861,33.2322819 L31.6388861,36.8711681 C31.3257332,36.7201749 31.0421962,36.4769352 30.7877897,36.1414488 C30.5328978,35.8059624 30.3590857,35.406389 30.2668391,34.9432139 L28,35.1864536 C28.173812,36.3269131 28.5733855,37.209082 29.198235,37.8349024 C29.8240554,38.4597518 30.6367966,38.8335934 31.6388861,38.9549705 L31.6388861,40.5357861 L32.8973241,40.5357861 L32.8973241,40.5362717 Z M32.8973241,33.605638 C33.4182747,33.7566311 33.7935728,33.9721969 34.0217618,34.2528208 C34.2509218,34.5334447 34.3655018,34.86796 34.3655018,35.2558813 C34.3655018,35.6899259 34.2285884,36.068137 33.9571892,36.3895436 C33.6848189,36.7109503 33.3313687,36.9124363 32.8973241,36.9930307 L32.8973241,33.605638 Z M30.7955579,30.118716 C30.6110647,29.8560559 30.517847,29.5710624 30.517847,29.2637356 C30.517847,28.9282492 30.6188328,28.6209223 30.8222608,28.3432115 C31.0247179,28.0645296 31.2970881,27.8683842 31.6388861,27.7518621 L31.6388861,30.7571597 C31.261646,30.5949998 30.9810221,30.3823471 30.7955579,30.118716 Z" id="Shape"></path>
                </g>
            </g>
        </g>
    </g>
</svg>