<svg xmlns="http://www.w3.org/2000/svg" width="14" height="11" viewBox="0 0 14 11">
  <path fill="#E81A59" d="M39.7070182,31.9321438 C39.5116696,31.7533154 39.2759597,31.6638135 38.9998065,31.6638135 L38.999998,31.6638135 L38.999998,28.9159972 C38.999998,28.6678682 38.9009419,28.453224 38.703158,28.2719394 C38.5052919,28.0906548 38.2705945,28 37.999914,28 C35.5988969,29.8318692 33.2655225,30.7478664 30.9999003,30.7478664 L27.250023,30.7478664 C26.9062817,30.7478664 26.6119591,30.8599255 26.3671645,31.084169 C26.1223426,31.3084626 26,31.5780461 26,31.8928191 L26,33.2667021 C26,33.5815754 26.122151,33.8511589 26.3670003,34.0753522 C26.6117675,34.2997211 26.9060902,34.4116548 27.2498588,34.4116548 L28.2030143,34.4116548 C28.1144931,34.6694083 28.0571664,34.9330767 28.031171,35.2023845 C28.005203,35.4719679 27.9960636,35.7068133 28.0038348,35.9072715 C28.0116061,36.1076295 28.050736,36.3484901 28.121033,36.6299787 C28.1913027,36.9114172 28.2512563,37.1236804 28.3007296,37.2667431 C28.3501756,37.4099812 28.4335251,37.6353024 28.5506959,37.9429574 C28.6678394,38.2506875 28.7446763,38.4593666 28.7810972,38.5690697 C29.020638,38.7694277 29.3643793,38.9018634 29.8122937,38.9662015 C30.2603449,39.0304394 30.6990925,39.0031702 31.1287828,38.8838678 C31.5584457,38.7646405 31.848828,38.5665132 31.9998475,38.2899872 C31.8019542,38.1468242 31.6418225,38.0263939 31.5194526,37.9285459 C31.3970279,37.830773 31.2720585,37.711646 31.1444074,37.5708641 C31.0167563,37.4302075 30.9296307,37.2989497 30.8827295,37.1773414 C30.835883,37.055708 30.8202311,36.9173824 30.835883,36.762239 C30.8514803,36.6071458 30.9114065,36.4508747 31.0155796,36.2935759 C30.8176863,36.107454 30.7134037,35.8868447 30.7030602,35.6315976 C30.6927168,35.3765009 30.7734393,35.1366929 30.9452826,34.9124996 C31.1170985,34.6883062 31.3541766,34.5308069 31.6562157,34.4402273 C33.7136011,34.5976263 35.8281215,35.5039741 37.9999961,37.159446 C38.270704,37.159446 38.505374,37.0687912 38.7030485,36.8874565 C38.9009966,36.7062972 38.9998886,36.4915277 38.9998886,36.2434989 L38.9998886,33.4957328 C39.2761513,33.4957328 39.5118338,33.4063311 39.7071003,33.2274025 C39.9022573,33.0484739 40,32.8326016 40,32.5798358 C39.9999179,32.3269697 39.9021752,32.1110724 39.7070182,31.9321438 Z M38,36 C35.9634145,34.5374872 33.9635513,33.7032892 32,33.4979458 L32,31.5167289 C33.9478444,31.3161657 35.9479812,30.4772646 38,29 L38,36 Z" transform="translate(-26 -28)"/>
</svg>
