<?xml version="1.0" encoding="UTF-8"?>
<svg width="15px" height="11px" viewBox="0 0 15 11" version="1.1" xmlns="http://www.w3.org/2000/svg" xmlns:xlink="http://www.w3.org/1999/xlink">
    <!-- Generator: sketchtool 52.5 (67469) - http://www.bohemiancoding.com/sketch -->
    <title>FAD31CE9-9135-41EB-9AA4-E264122696B1</title>
    <desc>Created with sketchtool.</desc>
    <g id="Page-1" stroke="none" stroke-width="1" fill="none" fill-rule="evenodd">
        <g id="Sales-Dashboard-Copy-7" transform="translate(-1044.000000, -699.000000)" fill="#E81A59" fill-rule="nonzero">
            <g id="Revenue-Row-Copy-5" transform="translate(1018.000000, 671.000000)">
                <g id="Card-01">
                    <g id="icon-(3)" transform="translate(26.000000, 28.000000)">
                        <path d="M15,1.19857939 L15,5.24573611 C15,5.24573611 14.0643718,5.41638407 13.8716225,5.43882781 C13.6794851,5.4612176 13.0756829,5.64171167 12.6380851,5.25231817 C11.963244,4.65353967 9.56554739,2.44604133 9.56554739,2.44604133 C9.56554739,2.44604133 9.15213435,2.07048634 8.48833659,2.39505735 C7.87899816,2.69238296 6.97574252,3.12812063 6.59846087,3.29779747 C5.88524469,3.64923624 5.29411765,3.09164956 5.29411765,2.66691795 C5.29411765,2.33746434 5.51618001,2.11386318 5.83361177,1.94941962 C6.69388853,1.46660944 8.5071016,0.524376974 9.26230595,0.152895302 C9.72134945,-0.0731336668 10.0520974,-0.0925021833 10.6823279,0.39902113 C11.4585118,1.00335661 12.1492624,1.55422635 12.1492624,1.55422635 C12.1492624,1.55422635 12.3745591,1.72830022 12.7338625,1.65819051 C13.6161677,1.4854924 15,1.19857939 15,1.19857939 Z M4.99198574,8.99830156 C5.12252775,8.6548307 5.07889363,8.27066535 4.82861988,8.00710732 C4.60373384,7.7713611 4.27539695,7.70922904 3.96232545,7.78270054 C4.04988851,7.46469309 4.00153719,7.12622097 3.7754391,6.88735474 C3.54986513,6.6522124 3.22215065,6.58883904 2.90911191,6.66298151 C2.9960198,6.34544373 2.94779952,6.00700517 2.72157039,5.76884345 C2.36732165,5.39672206 1.75457681,5.41269121 1.35204227,5.8056463 C0.951637028,6.19913816 0.695139189,6.91204653 1.05249997,7.33167278 C1.4092711,7.74918546 1.81920903,7.49515524 2.13172364,7.42222052 C2.04478299,7.7397583 1.78428863,8.03512042 2.1050911,8.45075439 C2.42559875,8.86658964 2.8717674,8.61430395 3.18460959,8.54204021 C3.09737412,8.85837023 2.84824691,9.18338934 3.15673224,9.56876244 C3.46800203,9.95530974 3.97782015,9.74935471 4.31454317,9.64223394 C4.18459082,9.9843964 3.90643972,10.35323 4.2638005,10.7665491 C4.62060439,11.1828541 5.44516468,10.9902514 5.84792853,10.5966924 C6.24961135,10.2032006 6.28816792,9.5795651 5.93486918,9.20626951 C5.69095054,8.95015927 5.32733292,8.89057691 4.99198574,8.99830156 Z M12.1447859,6.31888599 C9.39424298,3.7464888 10.6879699,4.95693162 9.20775815,3.56962402 C9.20775815,3.56962402 8.76289929,3.15543453 8.17658306,3.39602968 C7.76499192,3.56470387 7.23509153,3.79459047 6.83637421,3.97009498 C6.39823079,4.18496067 6.08291484,4.25146947 5.93486581,4.25054332 C5.08785456,4.2453627 4.40065208,3.60866682 4.40065208,2.81730471 C4.40065208,2.30393085 4.69207718,1.85697898 5.12672362,1.60327308 C5.737921,1.20772226 7.1447581,0.507903807 7.1447581,0.507903807 C7.1447581,0.507903807 6.71617722,0 5.77731615,0 C4.8387336,0 2.87776483,1.20144184 2.87776483,1.20144184 C2.87776483,1.20144184 2.32146691,1.53468045 1.52845765,1.23452259 L0,0.736748494 L0,5.70543058 C0,5.70543058 0.436441349,5.82357197 0.828597966,5.97337596 C0.917167429,5.73715105 1.0600793,5.51901492 1.25832388,5.33885074 C1.90891641,4.75931539 2.98728522,4.75329545 3.5792028,5.32330886 C3.7575177,5.49658484 3.88195439,5.70328887 3.94545703,5.93178625 C4.18396326,6.00063936 4.4000022,6.1226011 4.5736132,6.28988607 C4.75245419,6.46200437 4.87642668,6.66986608 4.94045541,6.89720578 C5.17868313,6.96611677 5.39441259,7.08854158 5.56861158,7.25594233 C5.76478273,7.44513642 5.89547066,7.67366275 5.95649756,7.92126187 C6.20552567,7.98910201 6.4305701,8.11531823 6.61182493,8.28862315 C6.96755728,8.63034178 7.09381983,9.09396427 7.01731958,9.54117663 C7.01793851,9.54117663 7.01911449,9.54117663 7.01967153,9.5421896 C7.02548951,9.54930934 7.24007395,9.77303128 7.37388749,9.89921857 C7.63612985,10.1447049 8.06433937,10.1447049 8.32738635,9.89921857 C8.58870031,9.65381903 8.58984533,9.2541295 8.32738635,9.00748546 C8.31797855,8.99871603 7.38128375,8.08241113 7.45666992,8.01135843 C7.53149905,7.94079775 8.72489674,9.10212592 8.74711648,9.12336938 C9.00901842,9.36836372 9.43694943,9.36836372 9.70002735,9.12336938 C9.96248633,8.87796985 9.96192929,8.47828032 9.70002735,8.23221512 C9.68715352,8.22075407 9.63343004,8.17262346 9.61350037,8.15346384 C9.61350037,8.15346384 8.43028413,7.16769806 8.52033904,7.08347673 C8.61150803,6.99873444 10.0812288,8.28144552 10.0836117,8.28144552 C10.3478037,8.5039519 10.7547529,8.50230221 11.0089181,8.26448549 C11.2562132,8.03323861 11.2615051,7.66744021 11.0422787,7.42094088 C11.0376367,7.40783014 9.92219373,6.31764149 10.0092468,6.23561975 C10.0975687,6.15252717 11.2012828,7.21539453 11.2036038,7.21759413 C11.4649178,7.46253059 11.8934368,7.46253059 12.1565147,7.21759413 C12.4184167,6.97262873 12.4184167,6.57244718 12.1565147,6.32531113 C12.1529558,6.3232273 12.1482829,6.32102771 12.1447859,6.31888599 Z" id="Shape"></path>
                    </g>
                </g>
            </g>
        </g>
    </g>
</svg>