<?xml version="1.0" encoding="UTF-8"?>
<svg width="14px" height="10px" viewBox="0 0 14 10" version="1.1" xmlns="http://www.w3.org/2000/svg" xmlns:xlink="http://www.w3.org/1999/xlink">
    <!-- Generator: sketchtool 52.5 (67469) - http://www.bohemiancoding.com/sketch -->
    <title>0A2A57D9-1ECD-4B6D-973A-2270802EA7B0</title>
    <desc>Created with sketchtool.</desc>
    <g id="Page-1" stroke="none" stroke-width="1" fill="none" fill-rule="evenodd">
        <g id="Sales-Dashboard-Copy-7" transform="translate(-758.000000, -702.000000)" fill="#E81A59" fill-rule="nonzero">
            <g id="Revenue-Row-Copy-4" transform="translate(733.000000, 674.000000)">
                <g id="Card-01">
                    <g id="noun_to-do_1324180" transform="translate(25.000000, 28.000000)">
                        <g id="Group">
                            <g id="Shape">
                                <path d="M4.375,5.6875 C3.97229236,5.6875 3.64583333,5.36104097 3.64583333,4.95833333 C3.64583333,4.5556257 3.97229236,4.22916667 4.375,4.22916667 L13.125,4.22916667 C13.5277076,4.22916667 13.8541667,4.5556257 13.8541667,4.95833333 C13.8541667,5.36104097 13.5277076,5.6875 13.125,5.6875 L4.375,5.6875 Z M4.375,9.1875 C3.97229236,9.1875 3.64583333,8.86104097 3.64583333,8.45833333 C3.64583333,8.0556257 3.97229236,7.72916667 4.375,7.72916667 L13.125,7.72916667 C13.5277076,7.72916667 13.8541667,8.0556257 13.8541667,8.45833333 C13.8541667,8.86104097 13.5277076,9.1875 13.125,9.1875 L4.375,9.1875 Z M4.375,2.1875 C3.97229236,2.1875 3.64583333,1.86104097 3.64583333,1.45833333 C3.64583333,1.0556257 3.97229236,0.729166667 4.375,0.729166667 L13.125,0.729166667 C13.5277076,0.729166667 13.8541667,1.0556257 13.8541667,1.45833333 C13.8541667,1.86104097 13.5277076,2.1875 13.125,2.1875 L4.375,2.1875 Z M0.145833333,1.45833333 C0.145833333,0.733459592 0.734934579,0.145833333 1.45833333,0.145833333 C2.18320707,0.145833333 2.77083333,0.734934579 2.77083333,1.45833333 C2.77083333,2.18320707 2.18173209,2.77083333 1.45833333,2.77083333 C0.733459592,2.77083333 0.145833333,2.18173209 0.145833333,1.45833333 Z M1.02083333,1.45833333 C1.02083333,1.69914427 1.21736982,1.89583333 1.45833333,1.89583333 C1.69914427,1.89583333 1.89583333,1.69929684 1.89583333,1.45833333 C1.89583333,1.2175224 1.69929684,1.02083333 1.45833333,1.02083333 C1.2175224,1.02083333 1.02083333,1.21736982 1.02083333,1.45833333 Z M0.145833333,4.95833333 C0.145833333,4.23345959 0.734934579,3.64583333 1.45833333,3.64583333 C2.18320707,3.64583333 2.77083333,4.23493458 2.77083333,4.95833333 C2.77083333,5.68320707 2.18173209,6.27083333 1.45833333,6.27083333 C0.733459592,6.27083333 0.145833333,5.68173209 0.145833333,4.95833333 Z M1.02083333,4.95833333 C1.02083333,5.19914427 1.21736982,5.39583333 1.45833333,5.39583333 C1.69914427,5.39583333 1.89583333,5.19929684 1.89583333,4.95833333 C1.89583333,4.7175224 1.69929684,4.52083333 1.45833333,4.52083333 C1.2175224,4.52083333 1.02083333,4.71736982 1.02083333,4.95833333 Z M0.145833333,8.45833333 C0.145833333,7.73345959 0.734934579,7.14583333 1.45833333,7.14583333 C2.18320707,7.14583333 2.77083333,7.73493458 2.77083333,8.45833333 C2.77083333,9.18320708 2.18173209,9.77083333 1.45833333,9.77083333 C0.733459592,9.77083333 0.145833333,9.18173209 0.145833333,8.45833333 Z M1.02083333,8.45833333 C1.02083333,8.69914427 1.21736982,8.89583333 1.45833333,8.89583333 C1.69914427,8.89583333 1.89583333,8.69929684 1.89583333,8.45833333 C1.89583333,8.2175224 1.69929684,8.02083333 1.45833333,8.02083333 C1.2175224,8.02083333 1.02083333,8.21736982 1.02083333,8.45833333 Z"></path>
                            </g>
                        </g>
                    </g>
                </g>
            </g>
        </g>
    </g>
</svg>